<svg xmlns="http://www.w3.org/2000/svg" id="background" width="200" height="200" viewBox="0 0 200 200"><defs><style>.cls-1{fill:#dff3ff;}.cls-2{fill:#94d5f5;}.cls-3{fill:#0047bb;}.cls-4{fill:#fff;}.cls-5{fill:#009fdf;}.cls-6{fill:#002855;}.cls-7{fill:#5b7bee;}</style></defs><path id="Path_5066" data-name="Path 5066" class="cls-1" d="M60.14,56.16C78.49,37.69,72.87,26.37,85.42,17.82c19.32-13.15,55.74-2.09,77,16,26.06,22.17,39.5,62.63,24.19,99.24-16.31,39-59.21,59.23-97.5,53.13-34.18-5.45-67.21-31.62-70.58-63.94-.37-3.5-2.55-23.2,8.75-39.53C36.63,69.23,45.6,70.79,60.14,56.16Z"></path><g id="Group_4175" data-name="Group 4175"><g id="Group_4173" data-name="Group 4173"><path id="Path_5244" data-name="Path 5244" class="cls-2" d="M134.4,24.67l-1.24-1.12-1.49,1.06a5.9,5.9,0,0,0-1-.53l0-1.82L129,21.91l-.76,1.66a7.45,7.45,0,0,0-1.16.06l-.93-1.57-1.59.52.17,1.81a7.85,7.85,0,0,0-1,.64l-1.59-.89L121,25.38l1,1.49a6.68,6.68,0,0,0-.53,1l-1.82,0-.35,1.63,1.66.76a7.45,7.45,0,0,0,.06,1.16l-1.56.93.51,1.59,1.82-.17a6.29,6.29,0,0,0,.63,1l-.89,1.59,1.24,1.11,1.49-1a7.17,7.17,0,0,0,1,.53l0,1.82,1.63.35.76-1.66a7.45,7.45,0,0,0,1.16-.06l.93,1.57,1.59-.52-.16-1.81a7.74,7.74,0,0,0,1-.64l1.59.89L135,35.69l-1.06-1.49a6.28,6.28,0,0,0,.53-1l1.82,0,.34-1.63L135,30.75a6.4,6.4,0,0,0-.07-1.16l1.57-.93L136,27.07l-1.82.17a6.29,6.29,0,0,0-.63-1Zm-3.2,8.73a4.3,4.3,0,1,1-.32-6.07h0a4.3,4.3,0,0,1,.32,6.08h0Z"></path></g><path id="Path_5245" data-name="Path 5245" class="cls-3" d="M133.39,37.1a.23.23,0,0,1-.27,0l-1.46-.82a6.14,6.14,0,0,1-.76.49l.16,1.67a.24.24,0,0,1-.16.24l-1.59.51a.21.21,0,0,1-.26-.1l-.86-1.44a6.55,6.55,0,0,1-.89,0l-.71,1.52a.22.22,0,0,1-.25.13L124.71,39a.23.23,0,0,1-.18-.22l0-1.67a7.53,7.53,0,0,1-.8-.41l-1.37,1a.23.23,0,0,1-.28,0l-1.24-1.12a.22.22,0,0,1,0-.27l.82-1.47a6,6,0,0,1-.49-.75l-1.67.15a.23.23,0,0,1-.24-.15l-.51-1.59a.22.22,0,0,1,.1-.26l1.44-.86a6.79,6.79,0,0,1,0-.9l-1.52-.7a.22.22,0,0,1-.13-.25l.35-1.63a.22.22,0,0,1,.22-.18l1.67,0a6.68,6.68,0,0,1,.41-.8l-1-1.37a.22.22,0,0,1,0-.28L121.34,24a.21.21,0,0,1,.27,0l1.47.82a7.52,7.52,0,0,1,.75-.5l-.15-1.66a.23.23,0,0,1,.15-.24l1.59-.51a.2.2,0,0,1,.26.1l.86,1.44a6.79,6.79,0,0,1,.9-.05l.7-1.52a.22.22,0,0,1,.25-.13L130,22a.22.22,0,0,1,.18.22l0,1.67a7.68,7.68,0,0,1,.81.41l1.36-1a.24.24,0,0,1,.29,0l1.24,1.12a.2.2,0,0,1,0,.27l-.81,1.47a7.43,7.43,0,0,1,.49.75l1.67-.15a.22.22,0,0,1,.23.15l.52,1.59a.22.22,0,0,1-.1.26l-1.44.86a6.78,6.78,0,0,1,0,.9l1.53.7a.23.23,0,0,1,.12.25l-.35,1.63a.21.21,0,0,1-.21.18l-1.68,0a5.48,5.48,0,0,1-.41.8l1,1.37a.22.22,0,0,1,0,.28l-1.11,1.25Zm-2.89-.58.06,0a7.19,7.19,0,0,0,.94-.61.21.21,0,0,1,.25,0l1.43.8.88-1-.95-1.34a.23.23,0,0,1,0-.25,6.73,6.73,0,0,0,.51-1,.23.23,0,0,1,.21-.14l1.64,0,.27-1.28L134.24,31a.22.22,0,0,1-.13-.21,7.14,7.14,0,0,0-.06-1.13.22.22,0,0,1,.11-.22l1.41-.84-.4-1.25-1.64.16a.22.22,0,0,1-.22-.12,6.58,6.58,0,0,0-.61-.94.21.21,0,0,1,0-.25l.8-1.43-1-.88-1.34.95a.25.25,0,0,1-.25,0,7.91,7.91,0,0,0-1-.52.23.23,0,0,1-.15-.2l0-1.64-1.28-.28-.68,1.5a.25.25,0,0,1-.22.13,7,7,0,0,0-1.12.06.22.22,0,0,1-.22-.11l-.84-1.41-1.25.4.15,1.64a.22.22,0,0,1-.11.22,6.38,6.38,0,0,0-1,.61.21.21,0,0,1-.24,0l-1.44-.81-.87,1,.95,1.34a.23.23,0,0,1,0,.25,6.27,6.27,0,0,0-.51,1,.22.22,0,0,1-.2.14l-1.65,0L119,29.43l1.5.69a.23.23,0,0,1,.13.21,6,6,0,0,0,.06,1.12.26.26,0,0,1-.11.23l-1.42.84.41,1.24,1.63-.15a.22.22,0,0,1,.22.12,7.27,7.27,0,0,0,.62.94.25.25,0,0,1,0,.25l-.81,1.43,1,.88,1.34-.95a.23.23,0,0,1,.25,0,6.27,6.27,0,0,0,1,.51A.24.24,0,0,1,125,37l0,1.64,1.28.27.69-1.49a.21.21,0,0,1,.21-.13,7,7,0,0,0,1.12-.06.22.22,0,0,1,.22.11l.84,1.41,1.25-.4-.15-1.64A.25.25,0,0,1,130.5,36.52Zm.1-2.82a4.55,4.55,0,1,1,.13-.14h0l-.13.14Zm-6.14-6-.12.12a4.07,4.07,0,1,0,6,5.54l.08-.09h0a4.07,4.07,0,0,0-5.93-5.58Z"></path><g id="Group_4174" data-name="Group 4174"><path id="Path_5246" data-name="Path 5246" class="cls-2" d="M115.93,30.62,114,29.23l-2,1.74a9.69,9.69,0,0,0-1.55-.59l-.32-2.58-2.37-.23L107,30a9.92,9.92,0,0,0-1.63.28l-1.57-2.08-2.17,1,.53,2.54a9.36,9.36,0,0,0-1.28,1.06l-2.4-1-1.38,1.93,1.73,2a9.69,9.69,0,0,0-.59,1.55l-2.58.32-.22,2.37,2.47.82a9,9,0,0,0,.27,1.63L96.09,44l1,2.17,2.54-.53a9.36,9.36,0,0,0,1.06,1.28l-1,2.4,1.94,1.38,1.94-1.73a9.69,9.69,0,0,0,1.55.59l.32,2.58,2.37.22.82-2.47a9,9,0,0,0,1.63-.27l1.57,2.08,2.17-1-.52-2.54a9.91,9.91,0,0,0,1.27-1.06l2.4,1,1.39-1.94-1.74-1.94a9.69,9.69,0,0,0,.59-1.55l2.58-.32.23-2.37-2.47-.82a9.92,9.92,0,0,0-.28-1.63l2.08-1.57-1-2.17L116,34.3A9.36,9.36,0,0,0,114.92,33Zm-3.14,12.89A6.13,6.13,0,1,1,111.36,35h0a6.12,6.12,0,0,1,1.43,8.55Z"></path></g><path id="Path_5247" data-name="Path 5247" class="cls-3" d="M116.94,48.81a.25.25,0,0,1-.25,0l-2.26-1a9.18,9.18,0,0,1-1.07.89l.49,2.4a.22.22,0,0,1-.12.25l-2.17,1a.21.21,0,0,1-.27-.07l-1.48-2a10.46,10.46,0,0,1-1.38.23L107.66,53a.22.22,0,0,1-.23.15l-2.37-.23a.21.21,0,0,1-.2-.19l-.31-2.43a10.38,10.38,0,0,1-1.31-.5l-1.83,1.63a.23.23,0,0,1-.28,0L99.19,50a.23.23,0,0,1-.07-.27l.95-2.26a10.21,10.21,0,0,1-.89-1.08l-2.4.5a.22.22,0,0,1-.25-.13l-1-2.16a.25.25,0,0,1,.07-.28l2-1.48a9.11,9.11,0,0,1-.23-1.37L95,40.72a.23.23,0,0,1-.16-.23l.23-2.37a.22.22,0,0,1,.2-.2l2.43-.31a10.33,10.33,0,0,1,.49-1.31l-1.63-1.83a.23.23,0,0,1,0-.28l1.38-1.94a.23.23,0,0,1,.27-.07l2.26,1a10.21,10.21,0,0,1,1.08-.89l-.5-2.4a.23.23,0,0,1,.13-.25l2.17-1a.23.23,0,0,1,.27.07l1.48,2a9.46,9.46,0,0,1,1.38-.23l.77-2.33a.23.23,0,0,1,.24-.16l2.36.23a.24.24,0,0,1,.21.2l.3,2.43a9.83,9.83,0,0,1,1.31.5l1.83-1.64a.23.23,0,0,1,.28,0L115.72,31a.22.22,0,0,1,.07.28l-1,2.26a9.18,9.18,0,0,1,.89,1.07l2.4-.49a.21.21,0,0,1,.25.12l1,2.17a.23.23,0,0,1-.07.27l-2,1.48a13.24,13.24,0,0,1,.23,1.38l2.32.77a.23.23,0,0,1,.16.24l-.23,2.37a.23.23,0,0,1-.2.2l-2.43.3a9.79,9.79,0,0,1-.49,1.31l1.63,1.83a.23.23,0,0,1,0,.28L117,48.78Zm-4-.27,0,0a10.21,10.21,0,0,0,1.25-1,.23.23,0,0,1,.24,0l2.23.94,1.18-1.64-1.61-1.81a.22.22,0,0,1,0-.24,8.45,8.45,0,0,0,.57-1.52A.22.22,0,0,1,117,43l2.4-.3.2-2-2.3-.76a.21.21,0,0,1-.16-.19,9.7,9.7,0,0,0-.26-1.6.22.22,0,0,1,.08-.23l1.93-1.47L118,34.59l-2.36.5a.23.23,0,0,1-.23-.1,10.29,10.29,0,0,0-1-1.25.21.21,0,0,1,0-.24l.94-2.23-1.65-1.18-1.8,1.61a.23.23,0,0,1-.25,0,9.28,9.28,0,0,0-1.52-.57.24.24,0,0,1-.16-.19l-.3-2.4-2-.2-.76,2.3a.24.24,0,0,1-.2.16,9.42,9.42,0,0,0-1.59.26.24.24,0,0,1-.24-.08l-1.46-1.93-1.84.84.49,2.36a.25.25,0,0,1-.09.24,8.25,8.25,0,0,0-1.25,1,.23.23,0,0,1-.25,0l-2.23-.94L97,34.31l1.61,1.8a.23.23,0,0,1,0,.25,10.3,10.3,0,0,0-.57,1.52.21.21,0,0,1-.19.16l-2.4.3-.19,2,2.3.76a.24.24,0,0,1,.15.2,8.77,8.77,0,0,0,.27,1.6.21.21,0,0,1-.09.23L96,44.6l.84,1.84L99.23,46a.21.21,0,0,1,.23.1,10.21,10.21,0,0,0,1,1.25.23.23,0,0,1,.05.24l-.94,2.23L101.24,51l1.81-1.62a.23.23,0,0,1,.25,0,9.78,9.78,0,0,0,1.51.57.22.22,0,0,1,.16.19l.31,2.4,2,.2.76-2.3a.21.21,0,0,1,.19-.16,9.53,9.53,0,0,0,1.6-.26.2.2,0,0,1,.23.08L111.54,52l1.84-.84-.49-2.37a.21.21,0,0,1,0-.2ZM112,45a6.4,6.4,0,1,1,.63-.76A5.78,5.78,0,0,1,112,45Zm-8.75-8.59a5.61,5.61,0,0,0-.59.7,5.9,5.9,0,1,0,.59-.7Z"></path></g><g id="Group_4101" data-name="Group 4101"><g id="Group_4083" data-name="Group 4083"><path id="Path_5069" data-name="Path 5069" class="cls-3" d="M181.79,47.06h-3.15L167.42,179.28h2.85a6.25,6.25,0,0,0,6.1-5.61l10.54-121a5.05,5.05,0,0,0-4.48-5.58A3.39,3.39,0,0,0,181.79,47.06Z"></path><path id="Path_5070" data-name="Path 5070" class="cls-4" d="M179.32,47.06H40.82a6.23,6.23,0,0,0-6.1,5.61l-10.55,121a5.08,5.08,0,0,0,4.48,5.58l.64,0h138.5a6.25,6.25,0,0,0,6.1-5.61l10.55-121A5.07,5.07,0,0,0,180,47.09,3.47,3.47,0,0,0,179.32,47.06Z"></path><path id="Path_5071" data-name="Path 5071" d="M30.65,99.18h0a.32.32,0,0,1-.29-.34h0l2.88-33a.32.32,0,0,1,.34-.29.33.33,0,0,1,.29.35h0L31,98.89A.31.31,0,0,1,30.65,99.18Z"></path><path id="Path_5072" data-name="Path 5072" d="M163.43,47.37H69a.32.32,0,1,1,0-.63h94.45a.32.32,0,1,1,0,.63Z"></path><path id="Path_5073" data-name="Path 5073" d="M29,179.59a5.37,5.37,0,0,1-5.47-5.28c0-.23,0-.45,0-.67l2.68-30.74a.32.32,0,0,1,.36-.28.32.32,0,0,1,.27.33l-2.68,30.74a4.75,4.75,0,0,0,4.2,5.24l.6,0a.32.32,0,1,1,0,.63Z"></path><path id="Path_5074" data-name="Path 5074" d="M83.05,179.57H72a.32.32,0,1,1,0-.63H83.05a.31.31,0,0,1,.32.31.32.32,0,0,1-.31.32Z"></path><path id="Path_5075" data-name="Path 5075" d="M147.44,179.57H130.28a.32.32,0,0,1-.32-.32.33.33,0,0,1,.32-.31h17.16a.32.32,0,0,1,0,.63Z"></path></g><g id="Group_4100" data-name="Group 4100"><g id="Group_4084" data-name="Group 4084"><path id="Path_5076" data-name="Path 5076" class="cls-3" d="M62.65,170.33h0a.32.32,0,0,1-.29-.34h0L72.06,56.72a.32.32,0,0,1,.35-.29.31.31,0,0,1,.28.34h0L63,170A.31.31,0,0,1,62.65,170.33Z"></path><path id="Path_5077" data-name="Path 5077" class="cls-3" d="M102.42,131.24h0a.32.32,0,0,1-.28-.35L109,56.71a.33.33,0,0,1,.34-.29.31.31,0,0,1,.3.33v0L102.74,131A.32.32,0,0,1,102.42,131.24Z"></path><path id="Path_5078" data-name="Path 5078" class="cls-3" d="M136.21,159.31h0a.32.32,0,0,1-.29-.35L146.24,56.71a.32.32,0,1,1,.63.07L136.52,159A.31.31,0,0,1,136.21,159.31Z"></path></g><path id="Path_5079" data-name="Path 5079" class="cls-3" d="M175.19,74.28H40.57a.32.32,0,0,1,0-.63H175.19a.32.32,0,1,1,0,.63Z"></path><g id="Group_4085" data-name="Group 4085"><path id="Path_5080" data-name="Path 5080" class="cls-3" d="M103.65,62.53a2.69,2.69,0,0,0-2.33-3l-.33,0H80a3.35,3.35,0,0,0-3.2,3l-.24,2.84a2.68,2.68,0,0,0,2.34,3l.34,0h20.9a3.33,3.33,0,0,0,3.21-3Z"></path><path id="Path_5081" data-name="Path 5081" class="cls-3" d="M141.22,62.53a2.67,2.67,0,0,0-2.28-3,2.19,2.19,0,0,0-.36,0H117.64a3.37,3.37,0,0,0-3.23,3l-.27,2.84a2.65,2.65,0,0,0,2.29,3,2.19,2.19,0,0,0,.36,0h20.9a3.37,3.37,0,0,0,3.24-3Z"></path><path id="Path_5082" data-name="Path 5082" class="cls-3" d="M66.71,62.53a2.72,2.72,0,0,0-2.37-3l-.32,0H43.08a3.33,3.33,0,0,0-3.18,3l-.22,2.87A2.66,2.66,0,0,0,42,68.35l.34,0h20.9a3.28,3.28,0,0,0,3.18-3Z"></path><path id="Path_5083" data-name="Path 5083" class="cls-3" d="M178.16,62.53a2.65,2.65,0,0,0-2.23-3,2.56,2.56,0,0,0-.39,0H154.6a3.4,3.4,0,0,0-3.25,3l-.29,2.84a2.63,2.63,0,0,0,2.24,3,2.56,2.56,0,0,0,.39,0h20.9a3.39,3.39,0,0,0,3.26-3Z"></path></g><g id="Group_4087" data-name="Group 4087"><path id="Path_5084" data-name="Path 5084" class="cls-1" d="M62.84,81.89H40.54a2.1,2.1,0,0,0-2,1.93L37.71,94a1.71,1.71,0,0,0,1.52,1.87H61.67a2.06,2.06,0,0,0,2-1.86l.86-10.17A1.73,1.73,0,0,0,63,81.9Z"></path><path id="Path_5085" data-name="Path 5085" class="cls-3" d="M45.71,96.21H39.32a2,2,0,0,1-1.5-.64A2.1,2.1,0,0,1,37.29,94l.81-10.15a2.39,2.39,0,0,1,2.33-2.19H45a.32.32,0,0,1,.32.32.31.31,0,0,1-.32.31H40.43a1.76,1.76,0,0,0-1.7,1.61L37.92,94a1.49,1.49,0,0,0,.37,1.11,1.36,1.36,0,0,0,1,.44h6.39a.32.32,0,0,1,0,.63Z"></path><path id="Path_5086" data-name="Path 5086" class="cls-3" d="M61.56,96.21H53.69a.31.31,0,0,1-.32-.31.32.32,0,0,1,.31-.32h7.88a1.75,1.75,0,0,0,1.7-1.6l.86-10.15a1.45,1.45,0,0,0-.36-1.11,1.36,1.36,0,0,0-1-.44h-5a.32.32,0,0,1,0-.64h5a2,2,0,0,1,1.5.65,2.07,2.07,0,0,1,.52,1.6L63.89,94A2.39,2.39,0,0,1,61.56,96.21Z"></path><g id="Group_4086" data-name="Group 4086"><path id="Path_5087" data-name="Path 5087" class="cls-4" d="M62.62,86.08a1,1,0,0,1-.88.88h-16a.79.79,0,0,1-.75-.83v-.08a.87.87,0,0,1,.88-.78h16a.71.71,0,0,1,.74.67v.14Z"></path><path id="Path_5088" data-name="Path 5088" class="cls-4" d="M62.22,90.76a.93.93,0,0,1-.87.85h-16a.77.77,0,0,1-.74-.79v0a.79.79,0,0,1,.87-.69h16c.45,0,.78.24.74.69Z"></path><path id="Path_5089" data-name="Path 5089" class="cls-4" d="M43.42,86a1.68,1.68,0,0,1-1.6,1.62h0a1.42,1.42,0,0,1-1.4-1.44,1.09,1.09,0,0,1,0-.18v0A1.62,1.62,0,0,1,42,84.43h0a1.31,1.31,0,0,1,1.36,1.27,1,1,0,0,1,0,.25Z"></path></g></g><g id="Group_4089" data-name="Group 4089"><path id="Path_5090" data-name="Path 5090" class="cls-1" d="M99.58,81.89H77.27a2.11,2.11,0,0,0-2,1.93L74.36,94a1.68,1.68,0,0,0,1.47,1.87H98.3a2.08,2.08,0,0,0,2-1.86l.94-10.17a1.7,1.7,0,0,0-1.48-1.91Z"></path><path id="Path_5091" data-name="Path 5091" class="cls-3" d="M98.19,96.21H82.34a.32.32,0,0,1,0-.63H98.19A1.77,1.77,0,0,0,99.91,94l.94-10.15a1.41,1.41,0,0,0-.35-1.11,1.36,1.36,0,0,0-1-.44h-5a.32.32,0,0,1,0-.64h5a2,2,0,0,1,1.49.65,2,2,0,0,1,.52,1.6L100.54,94A2.42,2.42,0,0,1,98.19,96.21Z"></path><path id="Path_5092" data-name="Path 5092" class="cls-3" d="M74.49,91.61h0a.32.32,0,0,1-.28-.35l.64-7.43a2.43,2.43,0,0,1,2.35-2.19h4.52A.31.31,0,0,1,82,82a.3.3,0,0,1-.31.32H77.17a1.79,1.79,0,0,0-1.72,1.62l-.64,7.43A.32.32,0,0,1,74.49,91.61Z"></path><g id="Group_4088" data-name="Group 4088"><path id="Path_5093" data-name="Path 5093" class="cls-4" d="M99.17,86.08a1,1,0,0,1-.88.88h-16a.78.78,0,0,1-.74-.82v-.09a.87.87,0,0,1,.88-.78h16a.7.7,0,0,1,.73.66v.15Z"></path><path id="Path_5094" data-name="Path 5094" class="cls-4" d="M98.73,90.76a.93.93,0,0,1-.88.85h-16a.76.76,0,0,1-.74-.78.15.15,0,0,1,0-.07v.06a.79.79,0,0,1,.87-.69H98c.45,0,.78.24.73.69Z"></path><path id="Path_5095" data-name="Path 5095" class="cls-4" d="M80.06,86a1.8,1.8,0,0,1-1.7,1.65h0a1.48,1.48,0,0,1-1.44-1.51s0-.09,0-.14v0a1.71,1.71,0,0,1,1.7-1.54h0a1.38,1.38,0,0,1,1.43,1.33,1.48,1.48,0,0,1,0,.21Z"></path></g></g><g id="Group_4091" data-name="Group 4091"><path id="Path_5096" data-name="Path 5096" class="cls-1" d="M97.77,101.54H75.55a2.13,2.13,0,0,0-2,1.92l-.88,10.11a1.72,1.72,0,0,0,1.51,1.91H96.49a2.11,2.11,0,0,0,2-1.9l.93-10.11A1.71,1.71,0,0,0,98,101.56Z"></path><path id="Path_5097" data-name="Path 5097" class="cls-3" d="M87.82,115.76H75.6a.33.33,0,0,1-.32-.32.32.32,0,0,1,.32-.32H87.82a.32.32,0,0,1,.32.32A.33.33,0,0,1,87.82,115.76Z"></path><path id="Path_5098" data-name="Path 5098" class="cls-3" d="M75.6,115.76H74.24a2,2,0,0,1-1.48-.64,2,2,0,0,1-.52-1.58l.36-4.22a.32.32,0,0,1,.64.06h0l-.37,4.21a1.39,1.39,0,0,0,.35,1.1,1.35,1.35,0,0,0,1,.44H75.6a.32.32,0,0,1,.32.31.32.32,0,0,1-.32.32Z"></path><path id="Path_5099" data-name="Path 5099" class="cls-3" d="M73.43,103.82h0a.33.33,0,0,1-.29-.35,2.41,2.41,0,0,1,2.34-2.17H86.17a.32.32,0,0,1,.32.31.32.32,0,0,1-.32.32H75.45a1.78,1.78,0,0,0-1.71,1.6A.31.31,0,0,1,73.43,103.82Z"></path><path id="Path_5100" data-name="Path 5100" class="cls-3" d="M98.84,109.33h0a.32.32,0,0,1-.28-.35h0l.51-5.51a1.43,1.43,0,0,0-.36-1.1,1.34,1.34,0,0,0-1-.43H92a.32.32,0,1,1,0-.64h5.69a2,2,0,0,1,1.48.65,2,2,0,0,1,.52,1.58L99.16,109A.32.32,0,0,1,98.84,109.33Z"></path><g id="Group_4090" data-name="Group 4090"><path id="Path_5101" data-name="Path 5101" class="cls-4" d="M97.37,105.5a.82.82,0,0,1-.88.7h-16c-.45,0-.78-.25-.74-.7v-.13a1,1,0,0,1,.88-.87h16a.78.78,0,0,1,.74.81.13.13,0,0,1,0,.06Z"></path><path id="Path_5102" data-name="Path 5102" class="cls-4" d="M96.93,110.26a.89.89,0,0,1-.88.8H80.11a.72.72,0,0,1-.74-.69.37.37,0,0,1,0-.11v-.08a.91.91,0,0,1,.87-.82h16a.74.74,0,0,1,.74.73.28.28,0,0,1,0,.09Z"></path><path id="Path_5103" data-name="Path 5103" class="cls-4" d="M78.33,105.47a1.73,1.73,0,0,1-1.7,1.57h0a1.41,1.41,0,0,1-1.43-1.38c0-.06,0-.12,0-.19v0a1.74,1.74,0,0,1,1.7-1.58h0a1.42,1.42,0,0,1,1.43,1.4,1.09,1.09,0,0,1,0,.18Z"></path></g></g><g id="Group_4093" data-name="Group 4093"><path id="Path_5104" data-name="Path 5104" class="cls-1" d="M61.21,101.54H39a2.13,2.13,0,0,0-2,1.92l-.88,10.11a1.72,1.72,0,0,0,1.51,1.91H59.93a2.11,2.11,0,0,0,2-1.9l.93-10.11a1.71,1.71,0,0,0-1.49-1.92Z"></path><path id="Path_5105" data-name="Path 5105" class="cls-3" d="M51.26,115.76H39a.33.33,0,0,1-.32-.32.32.32,0,0,1,.32-.32H51.26a.32.32,0,0,1,.32.32A.33.33,0,0,1,51.26,115.76Z"></path><path id="Path_5106" data-name="Path 5106" class="cls-3" d="M39,115.76H37.68a2,2,0,0,1-1.48-.64,2,2,0,0,1-.52-1.58l.36-4.22a.32.32,0,0,1,.64.06h0l-.37,4.21a1.42,1.42,0,0,0,.35,1.1,1.35,1.35,0,0,0,1,.44H39a.32.32,0,0,1,.31.32.31.31,0,0,1-.31.31Z"></path><path id="Path_5107" data-name="Path 5107" class="cls-3" d="M62.28,109.33h0A.32.32,0,0,1,62,109l.51-5.51a1.46,1.46,0,0,0-.35-1.1,1.38,1.38,0,0,0-1-.43H38.89a1.77,1.77,0,0,0-1.71,1.6.3.3,0,0,1-.34.28.32.32,0,0,1-.29-.34,2.41,2.41,0,0,1,2.34-2.17H61.11a2,2,0,0,1,1.48.64,2.06,2.06,0,0,1,.52,1.59l-.51,5.51A.32.32,0,0,1,62.28,109.33Z"></path><g id="Group_4092" data-name="Group 4092"><path id="Path_5108" data-name="Path 5108" class="cls-4" d="M60.81,105.5a.82.82,0,0,1-.88.7H44c-.45,0-.78-.25-.74-.7v-.13a1,1,0,0,1,.88-.87h16a.78.78,0,0,1,.74.81.13.13,0,0,1,0,.06Z"></path><path id="Path_5109" data-name="Path 5109" class="cls-4" d="M60.37,110.26a.89.89,0,0,1-.88.8H43.55a.72.72,0,0,1-.74-.69.37.37,0,0,1,0-.11v-.08a.91.91,0,0,1,.87-.82h16a.74.74,0,0,1,.74.73.28.28,0,0,1,0,.09Z"></path><path id="Path_5110" data-name="Path 5110" class="cls-4" d="M41.77,105.47a1.73,1.73,0,0,1-1.7,1.57h0a1.41,1.41,0,0,1-1.43-1.38c0-.06,0-.12,0-.19v0a1.74,1.74,0,0,1,1.7-1.58h0a1.42,1.42,0,0,1,1.43,1.4,1.09,1.09,0,0,1,0,.18Z"></path></g></g><g id="Group_4095" data-name="Group 4095"><path id="Path_5111" data-name="Path 5111" class="cls-1" d="M137.12,81.89H114.81a2.14,2.14,0,0,0-2,1.93l-1,10.14a1.66,1.66,0,0,0,1.44,1.86l.24,0h22.24A2.11,2.11,0,0,0,137.78,94l1-10.17a1.68,1.68,0,0,0-1.45-1.9A.9.9,0,0,0,137.12,81.89Z"></path><path id="Path_5112" data-name="Path 5112" class="cls-3" d="M119.78,96.21h-6.39a2,2,0,0,1-1.49-.64,2,2,0,0,1-.51-1.59l1-10.15a2.44,2.44,0,0,1,2.36-2.19h4.53a.32.32,0,0,1,.32.31.31.31,0,0,1-.31.32h-4.54A1.8,1.8,0,0,0,113,83.89L112,94a1.39,1.39,0,0,0,.35,1.1,1.32,1.32,0,0,0,1,.44h6.39a.32.32,0,0,1,.32.31.32.32,0,0,1-.32.32Z"></path><path id="Path_5113" data-name="Path 5113" class="cls-3" d="M135.63,96.21h-7.87a.31.31,0,0,1-.32-.31.32.32,0,0,1,.32-.32h7.87A1.79,1.79,0,0,0,137.36,94l1-10.15a1.41,1.41,0,0,0-.35-1.11,1.3,1.3,0,0,0-1-.44h-5a.32.32,0,0,1,0-.63h5a2,2,0,0,1,1.49.64,2.08,2.08,0,0,1,.5,1.6L138,94A2.45,2.45,0,0,1,135.63,96.21Z"></path><g id="Group_4094" data-name="Group 4094"><path id="Path_5114" data-name="Path 5114" class="cls-4" d="M136.77,86.08a1,1,0,0,1-.89.88h-16a.76.76,0,0,1-.73-.81v-.1a.87.87,0,0,1,.88-.78h16a.69.69,0,0,1,.73.65.53.53,0,0,1,0,.13Z"></path><path id="Path_5115" data-name="Path 5115" class="cls-4" d="M136.3,90.76a1,1,0,0,1-.89.85h-16a.76.76,0,0,1-.74-.77s0-.06,0-.08v.06a.83.83,0,0,1,.89-.69h16c.44,0,.77.24.72.69Z"></path><path id="Path_5116" data-name="Path 5116" class="cls-4" d="M117.66,86A1.82,1.82,0,0,1,116,87.6h0a1.46,1.46,0,0,1-1.42-1.49.86.86,0,0,1,0-.16v0a1.73,1.73,0,0,1,1.72-1.54h0a1.36,1.36,0,0,1,1.42,1.32.81.81,0,0,1,0,.22Z"></path></g></g><g id="Group_4097" data-name="Group 4097"><path id="Path_5117" data-name="Path 5117" class="cls-1" d="M173.86,81.89H151.55a2.18,2.18,0,0,0-2.06,1.93l-1,10.14a1.66,1.66,0,0,0,1.42,1.86l.25,0h22.24A2.12,2.12,0,0,0,174.43,94l1.09-10.17a1.67,1.67,0,0,0-1.41-1.9Z"></path><path id="Path_5118" data-name="Path 5118" class="cls-3" d="M148.66,91.29h0a.32.32,0,0,1-.28-.35h0l.72-7.12a2.46,2.46,0,0,1,2.38-2.18H156a.32.32,0,1,1,0,.63h-4.52a1.83,1.83,0,0,0-1.75,1.62L149,91A.32.32,0,0,1,148.66,91.29Z"></path><path id="Path_5119" data-name="Path 5119" class="cls-3" d="M172.26,96.21H164.4a.3.3,0,0,1-.32-.31.31.31,0,0,1,.31-.32h7.87A1.82,1.82,0,0,0,174,94l1.09-10.15a1.41,1.41,0,0,0-.33-1.11,1.39,1.39,0,0,0-1-.44h-5a.31.31,0,0,1-.32-.31.31.31,0,0,1,.31-.32h5a2,2,0,0,1,1.48.65,2,2,0,0,1,.5,1.6L174.65,94A2.46,2.46,0,0,1,172.26,96.21Z"></path><g id="Group_4096" data-name="Group 4096"><path id="Path_5120" data-name="Path 5120" class="cls-4" d="M173.52,86.08a1,1,0,0,1-.89.88h-16a.77.77,0,0,1-.73-.81s0,0,0-.07v0a.89.89,0,0,1,.89-.78h16a.69.69,0,0,1,.73.65.57.57,0,0,1,0,.13Z"></path><path id="Path_5121" data-name="Path 5121" class="cls-4" d="M173,90.76a1,1,0,0,1-.89.85h-16a.73.73,0,0,1-.72-.77v0a.82.82,0,0,1,.89-.69h16c.44,0,.77.24.72.69Z"></path><path id="Path_5122" data-name="Path 5122" class="cls-4" d="M154.42,86a1.84,1.84,0,0,1-1.72,1.65h0a1.45,1.45,0,0,1-1.41-1.47,1.09,1.09,0,0,1,0-.18v0A1.74,1.74,0,0,1,153,84.43h0a1.36,1.36,0,0,1,1.42,1.3,1.94,1.94,0,0,1,0,.24Z"></path></g></g><g id="Group_4099" data-name="Group 4099"><path id="Path_5123" data-name="Path 5123" class="cls-1" d="M135.16,101.54H112.94a2.14,2.14,0,0,0-2,1.92l-1,10.11a1.71,1.71,0,0,0,1.47,1.91h22.36a2.13,2.13,0,0,0,2-1.9l1-10.11a1.7,1.7,0,0,0-1.45-1.92Z"></path><path id="Path_5124" data-name="Path 5124" class="cls-3" d="M125.11,115.76H112.88a.33.33,0,0,1-.31-.32.31.31,0,0,1,.31-.32h12.23a.31.31,0,0,1,.31.32A.33.33,0,0,1,125.11,115.76Z"></path><path id="Path_5125" data-name="Path 5125" class="cls-3" d="M112.88,115.76h-1.35a2,2,0,0,1-2-2.22l.4-4.22a.32.32,0,0,1,.63.05h0l-.4,4.22a1.41,1.41,0,0,0,.34,1.09,1.39,1.39,0,0,0,1,.44h1.35a.3.3,0,0,1,.32.31.32.32,0,0,1-.31.32Z"></path><path id="Path_5126" data-name="Path 5126" class="cls-3" d="M110.81,103.82h0a.32.32,0,0,1-.29-.35,2.43,2.43,0,0,1,2.35-2.17h8.46a.3.3,0,0,1,.31.32.31.31,0,0,1-.31.31h-8.46a1.79,1.79,0,0,0-1.72,1.6A.31.31,0,0,1,110.81,103.82Z"></path><path id="Path_5127" data-name="Path 5127" class="cls-3" d="M136.18,109.33h0a.32.32,0,0,1-.29-.35h0l.55-5.51a1.35,1.35,0,0,0-1.35-1.54h-1.78a.32.32,0,1,1,0-.63h1.78a2,2,0,0,1,1.48.64,2,2,0,0,1,.5,1.59l-.55,5.52A.31.31,0,0,1,136.18,109.33Z"></path><g id="Group_4098" data-name="Group 4098"><path id="Path_5128" data-name="Path 5128" class="cls-4" d="M134.81,105.5a.82.82,0,0,1-.88.7H118c-.45,0-.77-.25-.73-.7v-.13a1,1,0,0,1,.88-.87h16a.77.77,0,0,1,.73.81.13.13,0,0,0,0,.06Z"></path><path id="Path_5129" data-name="Path 5129" class="cls-4" d="M134.34,110.26a.9.9,0,0,1-.88.8h-16a.72.72,0,0,1-.73-.69.41.41,0,0,1,0-.11v-.08a.93.93,0,0,1,.88-.82h16a.73.73,0,0,1,.73.73.28.28,0,0,1,0,.09Z"></path><path id="Path_5130" data-name="Path 5130" class="cls-4" d="M115.78,105.47a1.75,1.75,0,0,1-1.71,1.57h0a1.39,1.39,0,0,1-1.41-1.37,1.34,1.34,0,0,1,0-.2v0a1.76,1.76,0,0,1,1.71-1.58h0a1.4,1.4,0,0,1,1.42,1.39,1.37,1.37,0,0,1,0,.19Z"></path></g></g></g></g><g id="Group_4112" data-name="Group 4112"><path id="Path_5131" data-name="Path 5131" class="cls-5" d="M166.29,102.49c5,1.41,11.44,6.82,11.44,16.64,0,7.08-10.43,13.07-10.43,13.07L165.58,128s5.75-4.25,5.47-9.22c-.22-4-6.64-5.22-6.64-5.22Z"></path><g id="Group_4107" data-name="Group 4107"><rect id="Rectangle_1163" data-name="Rectangle 1163" class="cls-5" x="160.58" y="178.99" width="3.59" height="4.22"></rect><rect id="Rectangle_1164" data-name="Rectangle 1164" class="cls-5" x="150.58" y="178.68" width="3.59" height="4.22" transform="translate(-37.46 39.84) rotate(-13.28)"></rect><path id="Path_5132" data-name="Path 5132" class="cls-6" d="M167.15,126.64s1.07,8.48.25,11.78-2.75,33.74-2.75,42H159.8l-2.18-38.92-6.76,14.12a6,6,0,0,0-.36,3.64l4,21.16-4.53.31-7.58-23.23a6.75,6.75,0,0,1-.07-3.54l6.14-24.58Z"></path><path id="Path_5133" data-name="Path 5133" class="cls-4" d="M157.85,140.94a.31.31,0,0,1-.32-.31.32.32,0,0,1,.07-.2l2.5-3.13a.32.32,0,0,1,.45,0,.31.31,0,0,1,0,.44h0l-2.5,3.13A.31.31,0,0,1,157.85,140.94Z"></path><g id="Group_4104" data-name="Group 4104"><g id="Group_4102" data-name="Group 4102"><path id="Path_5134" data-name="Path 5134" class="cls-4" d="M164.41,182.27h-4.22l-.62,3.18a1,1,0,0,0,.73,1.17l.18,0h3.64a1,1,0,0,0,.94-1,1.1,1.1,0,0,0,0-.18Z"></path><path id="Path_5135" data-name="Path 5135" d="M164.12,187h-3.63a1.28,1.28,0,0,1-1-.46,1.34,1.34,0,0,1-.27-1.11l.62-3.19a.31.31,0,0,1,.31-.25h4.22a.3.3,0,0,1,.31.25l.63,3.19a1.32,1.32,0,0,1-.28,1.11A1.25,1.25,0,0,1,164.12,187Zm-3.67-4.38-.57,2.93a.73.73,0,0,0,.14.59.62.62,0,0,0,.47.22h3.63a.58.58,0,0,0,.46-.22.7.7,0,0,0,.15-.59l-.58-2.93Z"></path></g><g id="Group_4103" data-name="Group 4103"><path id="Path_5137" data-name="Path 5137" d="M164.41,186H160a.32.32,0,1,1,0-.63h4.38a.32.32,0,1,1,0,.63Z"></path></g></g><g id="Group_4105" data-name="Group 4105"><path id="Path_5138" data-name="Path 5138" class="cls-4" d="M154.72,181.33l1.16,3.84a1,1,0,0,1-.6,1.34l-.2.05-7.94.27c-.49,0-.69-.74-.27-1.05a24.63,24.63,0,0,0,3.48-3,1.3,1.3,0,0,1,1.76-.55,1.24,1.24,0,0,1,.43.36A2.83,2.83,0,0,1,154.72,181.33Z"></path><path id="Path_5139" data-name="Path 5139" d="M147.12,187.15a.79.79,0,0,1-.74-.56.92.92,0,0,1,.29-1.06,22,22,0,0,0,3.42-2.9,1.82,1.82,0,0,1,1.35-.84,1.68,1.68,0,0,1,1.05.37,3,3,0,0,1,2.23-1.14.31.31,0,0,1,.3.23l1.16,3.83a1.5,1.5,0,0,1-.2,1.3,1.14,1.14,0,0,1-.89.5l-7.94.27Zm4.37-4.72h0a1.17,1.17,0,0,0-.86.58,21.81,21.81,0,0,1-3.55,3,.32.32,0,0,0-.07.35s.06.15.15.14l7.93-.27a.5.5,0,0,0,.4-.24.87.87,0,0,0,.12-.75l-1.09-3.6a2.57,2.57,0,0,0-1.68,1.13.32.32,0,0,1-.44.11l-.08-.07a1.22,1.22,0,0,0-.8-.41Z"></path></g><g id="Group_4106" data-name="Group 4106"><path id="Path_5140" data-name="Path 5140" class="cls-4" d="M148,185.63l7.19-.31Z"></path><path id="Path_5141" data-name="Path 5141" d="M148,186a.32.32,0,0,1,0-.64l7.19-.31a.31.31,0,0,1,.33.29h0a.31.31,0,0,1-.3.33L148,186Z"></path></g></g><g id="Group_4109" data-name="Group 4109"><g id="Group_4108" data-name="Group 4108"><path id="Path_5142" data-name="Path 5142" class="cls-4" d="M158.94,100.31l3.91,2.65-10.76-.51,3.1-2,.42-1.92c-.55-.08-1.31-.14-1.55-.44-.43-.53-.23-2.36-.23-2.36l-.47-.37a.2.2,0,0,1-.08-.27h0c.4-.63.77-.83.95-1.48a6.57,6.57,0,0,1,.78-1.9h4.09l0,3.06a.76.76,0,0,1,1,.15c.29.4-.35,1.73-.87,1.73Z"></path><path id="Path_5143" data-name="Path 5143" d="M162.85,103.28h0l-10.76-.52a.3.3,0,0,1-.3-.33.3.3,0,0,1,.14-.25l3-1.91.32-1.46a2.23,2.23,0,0,1-1.42-.51,4.36,4.36,0,0,1-.31-2.42l-.31-.24a.51.51,0,0,1-.18-.71h0a5.13,5.13,0,0,1,.44-.6,1.85,1.85,0,0,0,.46-.79,1,1,0,0,0,.06-.22,7.23,7.23,0,0,1,.74-1.74.33.33,0,0,1,.29-.18h4.09a.32.32,0,0,1,.32.31l0,2.63a1,1,0,0,1,1,.4c.31.43,0,1.16-.13,1.37a1.7,1.7,0,0,1-.71.79l-.3,3.26L163,102.7a.32.32,0,0,1,.08.44.31.31,0,0,1-.26.14Zm-9.75-1.1,8.64.41-3-2a.32.32,0,0,1-.14-.29l.33-3.66a.32.32,0,0,1,.32-.29s.22-.12.41-.46a1.22,1.22,0,0,0,.2-.77.43.43,0,0,0-.6-.06.32.32,0,0,1-.44-.1.34.34,0,0,1,0-.17l0-2.75H155.2a5.88,5.88,0,0,0-.61,1.44c0,.07,0,.14-.06.23a2.54,2.54,0,0,1-.59,1,3.61,3.61,0,0,0-.33.44l.41.32a.33.33,0,0,1,.12.28,4.39,4.39,0,0,0,.16,2.13,2.46,2.46,0,0,0,1.09.29l.26,0a.32.32,0,0,1,.27.36v0l-.41,1.92a.35.35,0,0,1-.14.2Z"></path></g><path id="Path_5144" data-name="Path 5144" d="M159.48,98a2.12,2.12,0,0,1-1.79-.49c-.57-.45-1-1.26-.81-1.62.13-.2.35-.09.65-.33s.56-1.1.33-1.3-.5.15-.82,0-.18-.77-.48-1.3c-.49-.85-1.62-.33-2.5-1.24a2,2,0,0,1-.49-2.14,1.18,1.18,0,0,1,.44-.42c1.38-.75,1.58.28,2.92.29,2.75,0,4.1.58,4.6,1.72a4.23,4.23,0,0,1-.27,2.6,9.1,9.1,0,0,0-.33,1.13c-.13.62-.09.77-.16,1.14S160.45,97.69,159.48,98Z"></path></g><g id="Group_4111" data-name="Group 4111"><path id="Path_5145" data-name="Path 5145" class="cls-5" d="M148,101.87s9.38-2.66,18.29.62c.68,4,1.15,7.36,1.48,10.06.58,4.76.22,3.24.94,10.18.45,4.31.57,4.71.16,5.47-2.07,3.83-10.4,3.62-13.6,2.81l-2.7-.69-4.18-1a4,4,0,0,1-1.72-1.4c-1.1-1.68-.36-3.86,0-5.32.94-3.73-.29-3.81,0-10.62A60,60,0,0,1,148,101.87Z"></path><g id="Group_4110" data-name="Group 4110"><path id="Path_5146" data-name="Path 5146" class="cls-4" d="M127.1,98.59,126,93.91l-3-2.67s-1.72,0,1.09,3c0,0-1.34,2.62-.47,3.67.25.3,1.7,2.18,1.7,2.18Z"></path><path id="Path_5147" data-name="Path 5147" d="M125.32,100.38h0a.4.4,0,0,1-.22-.12s-1.44-1.88-1.69-2.18c-.85-1,0-3.12.34-3.81-1.26-1.35-1.73-2.26-1.48-2.86a.84.84,0,0,1,.76-.49.35.35,0,0,1,.22.08l3,2.68a.32.32,0,0,1,.1.17l1.08,4.68a.31.31,0,0,1-.11.31l-1.78,1.47A.37.37,0,0,1,125.32,100.38Zm-2.42-8.8a.14.14,0,0,0-.09.08s-.16.58,1.51,2.33a.3.3,0,0,1,.05.36c-.32.64-1.11,2.61-.51,3.33.2.24,1.1,1.4,1.51,1.93l1.37-1.13-1-4.39Z"></path></g><path id="Path_5148" data-name="Path 5148" class="cls-5" d="M124.25,99.84l3.28-2.19s3.44,7.66,8.75,8.44,7.82-4.38,14.69-4.85l.16,9.54s-6.72,5.93-12.66,5.62S126.28,105.77,124.25,99.84Z"></path><path id="Path_5149" data-name="Path 5149" class="cls-4" d="M165.16,131.12a.32.32,0,0,1,0-.63c.17,0,4.15-.66,3.63-4.43a.31.31,0,0,1,.27-.36.32.32,0,0,1,.36.27h0c.61,4.4-4.12,5.14-4.17,5.15Z"></path><path id="Path_5150" data-name="Path 5150" class="cls-4" d="M154.3,127.48a.36.36,0,0,1-.23-.09c-3.74-3.69-4.51-9.26-4.54-9.5a.33.33,0,0,1,.28-.36.31.31,0,0,1,.35.28s.78,5.6,4.36,9.12a.32.32,0,0,1,0,.45.32.32,0,0,1-.22.1Z"></path></g></g><g id="Group_4127" data-name="Group 4127"><g id="Group_4120" data-name="Group 4120"><g id="Group_4113" data-name="Group 4113"><path id="Path_5151" data-name="Path 5151" class="cls-5" d="M83.64,176.66c-6.55-6-3.16-9.92-3.16-9.92s2.92-4.74,13.18,1.45,20.19,3.89,22.44,3,10.09-6.76,14.51-7.09c2.46-.18,5.4,1.67,2.82,6.67-5.34,10.34-19.85,11.52-19.85,11.52a44.88,44.88,0,0,1-14.26,0S90.18,182.69,83.64,176.66Z"></path><path id="Path_5152" data-name="Path 5152" d="M106.07,183.16a38.41,38.41,0,0,1-6.77-.55c-.65,0-9.52.14-15.88-5.72s-3.47-10-3.2-10.34,3.41-4.78,13.6,1.37A26.76,26.76,0,0,0,116,170.86a34.23,34.23,0,0,0,3.28-1.87c3.45-2.12,8.17-5,11.33-5.24a3.93,3.93,0,0,1,3.61,1.56c.61.93,1,2.65-.48,5.57-2.81,5.43-8.13,8.32-12.1,9.79a34.33,34.33,0,0,1-8,1.9A46.58,46.58,0,0,1,106.07,183.16ZM99.32,182h.06a45,45,0,0,0,14.14,0h0c.15,0,14.4-1.29,19.6-11.35,1.09-2.1,1.27-3.8.52-4.93a3.32,3.32,0,0,0-3-1.28c-3,.23-7.66,3.07-11,5.15a32.11,32.11,0,0,1-3.37,1.92,23.16,23.16,0,0,1-8.34,1.21,28.64,28.64,0,0,1-14.38-4.2c-5.17-3.12-8.37-3.37-10.15-3a3.89,3.89,0,0,0-2.6,1.46l0,0c-.13.15-3.09,3.75,3.13,9.48C90.22,182.3,99.22,182,99.31,182Z"></path></g><g id="Group_4116" data-name="Group 4116"><g id="Group_4114" data-name="Group 4114"><path id="Path_5153" data-name="Path 5153" class="cls-4" d="M100.68,177.54l4.11,2.41-3,1.65-1.92-1.23Z"></path><path id="Path_5154" data-name="Path 5154" d="M101.78,181.92a.34.34,0,0,1-.17,0l-1.92-1.23a.32.32,0,0,1-.13-.36l.82-2.83a.32.32,0,0,1,.39-.21l.07,0,4.11,2.41a.32.32,0,0,1,.11.44.28.28,0,0,1-.12.12l-3,1.64A.42.42,0,0,1,101.78,181.92Zm-1.55-1.69,1.56,1,2.36-1.28L100.87,178Z"></path></g><g id="Group_4115" data-name="Group 4115"><path id="Path_5155" data-name="Path 5155" class="cls-4" d="M101.79,180.51l.62-.63a.68.68,0,0,1,.83-.1l.44.27.23-.34a.45.45,0,0,1,.58-.25c2.6,1.25,5.92,2.21,7.48,3.36,1.84,1.36.54,4.4-2.68,4.09-2.54-.25-6-3.08-7.35-4.25a.48.48,0,0,1,0-.67.43.43,0,0,1,.17-.13h0l-.34-.48A.68.68,0,0,1,101.79,180.51Z"></path><path id="Path_5156" data-name="Path 5156" d="M109.75,187.25l-.49,0c-2.63-.26-6.15-3.12-7.54-4.33a.8.8,0,0,1-.09-1.1l-.17-.25a1,1,0,0,1,.11-1.27l.61-.62a1,1,0,0,1,1.23-.15l.18.11,0-.07a.82.82,0,0,1,.46-.4.68.68,0,0,1,.54,0c1,.49,2.13.93,3.22,1.36a20.62,20.62,0,0,1,4.3,2,2.32,2.32,0,0,1,.81,2.74A3.26,3.26,0,0,1,109.75,187.25ZM102.89,180a.36.36,0,0,0-.26.11l-.61.62a.36.36,0,0,0,0,.46l.34.49a.32.32,0,0,1-.08.44l-.07,0a.14.14,0,0,0-.06.21.09.09,0,0,0,0,0c1.35,1.18,4.74,3.94,7.18,4.17a2.74,2.74,0,0,0,3.05-1.51,1.66,1.66,0,0,0-.59-2,20.53,20.53,0,0,0-4.16-2c-1.1-.43-2.23-.88-3.27-1.37h0a.19.19,0,0,0-.1.1l0,0-.23.34a.32.32,0,0,1-.43.09l-.44-.26A.31.31,0,0,0,102.89,180Zm-1.1.51Z"></path></g><path id="Path_5157" data-name="Path 5157" d="M108.92,186.18a4.21,4.21,0,0,1-1.11-.17.31.31,0,0,1-.23-.38.32.32,0,0,1,.39-.23h0a2.38,2.38,0,0,0,2.82-.82,1.07,1.07,0,0,0,0-1.32.32.32,0,0,1,.45-.45l0,0a1.71,1.71,0,0,1,.08,2.09A2.81,2.81,0,0,1,108.92,186.18Z"></path><path id="Path_5158" data-name="Path 5158" d="M107.35,184.73a.31.31,0,0,1-.31-.31.41.41,0,0,1,0-.19l1.52-2.19a.32.32,0,1,1,.53.35h0l-1.52,2.19A.29.29,0,0,1,107.35,184.73Z"></path><path id="Path_5159" data-name="Path 5159" d="M105.79,184.14a.31.31,0,0,1-.32-.31.32.32,0,0,1,0-.14l1-2.19a.32.32,0,0,1,.58.28h0L106.07,184A.31.31,0,0,1,105.79,184.14Z"></path></g><path id="Path_5160" data-name="Path 5160" d="M110.61,178a.32.32,0,0,1-.24-.11l-.34-.38a.33.33,0,0,1,0-.45h0l1.72-1.47a48.54,48.54,0,0,1,8.59-5.88l1.23-.66a.32.32,0,0,1,.43.13.31.31,0,0,1-.13.43h0l-1.23.66a47.65,47.65,0,0,0-8.48,5.8l-1.47,1.26.13.14a.32.32,0,0,1-.24.53Z"></path><g id="Group_4119" data-name="Group 4119"><g id="Group_4117" data-name="Group 4117"><path id="Path_5161" data-name="Path 5161" class="cls-4" d="M111,178.38l-6.44,2.67,1.48,2.11,7.19-2.11Z"></path><path id="Path_5162" data-name="Path 5162" d="M106,183.48a.32.32,0,0,1-.26-.13l-1.49-2.11a.32.32,0,0,1,.08-.45l.06,0,6.44-2.68a.34.34,0,0,1,.37.09l2.22,2.68a.31.31,0,0,1,0,.45.39.39,0,0,1-.11.06l-7.18,2.11Zm-1-2.29,1.12,1.6,6.5-1.91-1.77-2.12Z"></path></g><g id="Group_4118" data-name="Group 4118"><path id="Path_5163" data-name="Path 5163" class="cls-4" d="M107.18,181.56l-.5-.72a.67.67,0,0,0-.8-.24l-.75.33-.06-.22a.47.47,0,0,0-.53-.34c-1.46.23-6,.91-7.77,1.79-2,1-1.25,4.25,2,4.47,2.55.18,6.08-1.71,7.55-2.71.48-.32.14-.93.14-.93l.69-.57A.67.67,0,0,0,107.18,181.56Z"></path><path id="Path_5164" data-name="Path 5164" d="M99.07,187h-.36a3.37,3.37,0,0,1-3.33-2.5,2.3,2.3,0,0,1,1.24-2.57c1.67-.85,5.8-1.5,7.57-1.77l.3-.05a.79.79,0,0,1,.83.44l.42-.18a1,1,0,0,1,1.2.34l.5.72a1,1,0,0,1-.1,1.27l0,0-.5.42a1,1,0,0,1-.35,1.1C105,185.18,101.67,187,99.07,187Zm5.54-6.28h0l-.3,0c-1.59.25-5.8.9-7.38,1.71a1.68,1.68,0,0,0-.91,1.88,2.76,2.76,0,0,0,2.76,2c2.28.15,5.65-1.5,7.35-2.66.23-.15.07-.49,0-.52a.31.31,0,0,1,.07-.4l.67-.55a.36.36,0,0,0,0-.46l-.5-.71a.37.37,0,0,0-.43-.13l-.74.32a.3.3,0,0,1-.41-.16s0,0,0,0l-.06-.22a.14.14,0,0,0-.16-.11Zm2.5,1.74Z"></path></g><path id="Path_5165" data-name="Path 5165" d="M102.7,184.49a.33.33,0,0,1-.3-.23l-.67-2.33a.32.32,0,0,1,.2-.4.31.31,0,0,1,.4.2v0l.67,2.33a.32.32,0,0,1-.23.39h-.08Z"></path><path id="Path_5166" data-name="Path 5166" d="M98.8,186a.16.16,0,0,1-.1,0q-1.71-.58-2-1.65a2.16,2.16,0,0,1,.57-1.78.33.33,0,0,1,.45,0,.32.32,0,0,1,0,.45,1.52,1.52,0,0,0-.41,1.19c.12.47.66.88,1.56,1.2a.31.31,0,0,1-.1.61Z"></path></g><path id="Path_5167" data-name="Path 5167" d="M100.84,177.24h-.07a.32.32,0,0,1-.25-.37l.09-.4c-1.19-.86-8.53-6.11-12.64-6.71a.32.32,0,0,1,.1-.63c4.61.68,12.73,6.7,13.08,6.95a.35.35,0,0,1,.12.32l-.12.6A.32.32,0,0,1,100.84,177.24Z"></path></g><path id="Path_5168" data-name="Path 5168" class="cls-6" d="M122.28,161.76c-.34-1.51-2.35-6.08-4-10.17a11.3,11.3,0,0,0-8.56-6.65,42.48,42.48,0,0,0-8.66-.2c-4.81.38-8.94,2.9-10.53,7.13-1.44,3.8-3,8.47-3,10.83,0,2.52,1.49,4.93,3.15,6.8A12.64,12.64,0,0,0,99,173.63c4.62.43,11.82.86,15.09-.21C119.09,171.78,123.09,165.4,122.28,161.76Z"></path><g id="Group_4124" data-name="Group 4124"><g id="Group_4121" data-name="Group 4121"><rect class="cls-2" x="95.96" y="156.32" width="22.93" height="16.07" rx="1.52"></rect><path id="Path_5169" data-name="Path 5169" d="M117.26,173H97.5a2,2,0,0,1-2-1.94V158a2,2,0,0,1,2-1.94h19.76A1.94,1.94,0,0,1,119.2,158v13.07A1.94,1.94,0,0,1,117.26,173ZM97.5,156.7A1.31,1.31,0,0,0,96.19,158v13.07a1.31,1.31,0,0,0,1.31,1.31h19.76a1.31,1.31,0,0,0,1.31-1.31V158a1.31,1.31,0,0,0-1.31-1.31Z"></path></g><g id="Group_4122" data-name="Group 4122"><path id="Path_5170" data-name="Path 5170" class="cls-2" d="M118.57,172.78H95.85a1,1,0,0,0,0,2.05h22.72a1,1,0,0,0,0-2.05Z"></path><path id="Path_5171" data-name="Path 5171" d="M118.57,175.14H95.85a1.34,1.34,0,0,1,0-2.68h22.72a1.34,1.34,0,1,1,0,2.68Zm-22.72-2a.7.7,0,0,0-.71.7.71.71,0,0,0,.71.71h22.72a.71.71,0,0,0,.71-.71.7.7,0,0,0-.71-.7Z"></path></g><g id="Group_4123" data-name="Group 4123"><path id="Path_5172" data-name="Path 5172" class="cls-4" d="M108.8,164.54a1.19,1.19,0,1,1-1.18-1.18h0A1.18,1.18,0,0,1,108.8,164.54Z"></path></g></g><g id="Group_4126" data-name="Group 4126"><g id="Group_4125" data-name="Group 4125"><path id="Path_5173" data-name="Path 5173" class="cls-4" d="M107.12,143.47a2.1,2.1,0,0,0,2.3-1.87l.31-3.16a2,2,0,0,0-1.76-2.19l-.39,0a2,2,0,0,0-1.71.65l-.81.9a.39.39,0,0,1-.48.09.9.9,0,0,0-.77-.08,1.38,1.38,0,0,0,0,1.95,1.34,1.34,0,0,0,.66.38l-.92,3.27a3.07,3.07,0,0,1-1.58,1.91c-.55.27-1.1.6-1.13.79-.13,1,3,1.42,3.86,1.45,1.63,0,3.93-.62,4.1-1.55.08-.43-1.94-.64-1.85-1.06A9.79,9.79,0,0,0,107.12,143.47Z"></path><path id="Path_5174" data-name="Path 5174" d="M104.8,147.83h-.14c-.6,0-3.19-.26-3.94-1.12a.88.88,0,0,1-.22-.69c0-.25.26-.51,1.3-1a2.76,2.76,0,0,0,1.41-1.71l.85-3a1.54,1.54,0,0,1-1-1.31,1.63,1.63,0,0,1,.57-1.5,1.16,1.16,0,0,1,1.07.08.08.08,0,0,0,.1,0l.81-.9a2.34,2.34,0,0,1,2-.75l.39,0a2.33,2.33,0,0,1,2,2.53l-.32,3.16a2.41,2.41,0,0,1-2.31,2.17c0,.24-.08.6-.17,1.07a4.59,4.59,0,0,0,.7.27c.63.2,1.23.4,1.14.88C108.87,147.17,106.5,147.83,104.8,147.83Zm-3.67-1.69a.26.26,0,0,0,.07.15c.48.55,2.52.88,3.47.9,1.6,0,3.48-.58,3.76-1.2a5.6,5.6,0,0,0-.68-.26c-.64-.21-1.24-.4-1.14-.89a10.82,10.82,0,0,0,.2-1.39v-.33l.34,0a1.77,1.77,0,0,0,1.94-1.59l.32-3.16a1.69,1.69,0,0,0-1.48-1.84l-.39,0a1.67,1.67,0,0,0-1.44.55l-.81.9a.72.72,0,0,1-.85.16A.65.65,0,0,0,104,138a1.17,1.17,0,0,0-.23.92,1,1,0,0,0,.8.83l.3.09-1,3.57a3.38,3.38,0,0,1-1.74,2.1,3.44,3.44,0,0,0-1,.59Z"></path></g><path id="Path_5175" data-name="Path 5175" d="M107.29,143.8h0c-.28,0-1.71-.25-2.07-1.32a.33.33,0,0,1,.23-.39.32.32,0,0,1,.37.19c.24.73,1.49.88,1.55.89a.32.32,0,0,1,0,.63Z"></path><path id="Path_5176" data-name="Path 5176" d="M103.5,137.81l-.41-2.49a2.36,2.36,0,0,1,1.79-2.32l3.09-.77a.49.49,0,0,1,.59.36.59.59,0,0,1,0,.13.48.48,0,0,0,.47.5l.13,0,1.41-.35a.49.49,0,0,1,.59.36.47.47,0,0,1-.05.35l-.07.14a.49.49,0,0,0,.19.66l.11,0,1.1.3a.48.48,0,0,1,.35.59.45.45,0,0,1-.14.24l-2.85,2.4a2.25,2.25,0,0,0-2.51-1.77,3,3,0,0,0-2.08,1.53c-.13.22-.36.61-.74.26C104.49,138,104.74,137.12,103.5,137.81Z"></path></g></g><g id="Group_4143" data-name="Group 4143"><g id="Group_4128" data-name="Group 4128"><ellipse id="Ellipse_932" data-name="Ellipse 932" class="cls-2" cx="45.34" cy="43.62" rx="21.1" ry="21.22"></ellipse><path id="Path_5177" data-name="Path 5177" d="M45.29,65.16a21.18,21.18,0,0,1-12-3.72,21.57,21.57,0,0,1,8.06-39,21.18,21.18,0,0,1,16,3.34A21.54,21.54,0,0,1,45.3,65.16Zm.09-42.45a20.93,20.93,0,0,0-11.71,38.2,20.52,20.52,0,0,0,15.52,3.25A20.95,20.95,0,0,0,57,26.32a20.55,20.55,0,0,0-11.63-3.61Z"></path></g><g id="Group_4129" data-name="Group 4129"><ellipse id="Ellipse_933" data-name="Ellipse 933" class="cls-4" cx="45.34" cy="43.62" rx="17.99" ry="18.09"></ellipse><path id="Path_5178" data-name="Path 5178" d="M45.3,62a18.13,18.13,0,0,1-10.25-3.18A18.45,18.45,0,0,1,42,25.53a18.09,18.09,0,0,1,13.67,2.86A18.41,18.41,0,0,1,45.3,62Zm.07-36.2a17.8,17.8,0,0,0-10,32.49,17.44,17.44,0,0,0,13.2,2.76,17.81,17.81,0,0,0,6.65-32.18,17.44,17.44,0,0,0-9.89-3.07Z"></path></g><path id="Path_5179" data-name="Path 5179" d="M52.72,52.31a.32.32,0,0,1-.24-.11L45.1,43.83a.35.35,0,0,1-.08-.22l.26-8.53a.31.31,0,0,1,.32-.31h0a.32.32,0,0,1,.31.33h0l-.25,8.41L53,51.78a.33.33,0,0,1,0,.45.32.32,0,0,1-.21.08Z"></path><g id="Group_4142" data-name="Group 4142"><g id="Group_4130" data-name="Group 4130"><path id="Path_5180" data-name="Path 5180" class="cls-1" d="M43.72,29.29a1.15,1.15,0,1,1-1.34-.92A1.15,1.15,0,0,1,43.72,29.29Z"></path></g><g id="Group_4131" data-name="Group 4131"><ellipse id="Ellipse_934" data-name="Ellipse 934" class="cls-1" cx="35.94" cy="32.78" rx="1.15" ry="1.15"></ellipse></g><g id="Group_4132" data-name="Group 4132"><path id="Path_5181" data-name="Path 5181" class="cls-1" d="M32.19,37.86a1.17,1.17,0,0,1,.72,1.47,1.15,1.15,0,0,1-1.47.72,1.17,1.17,0,0,1-.72-1.47h0A1.16,1.16,0,0,1,32.19,37.86Z"></path></g><g id="Group_4133" data-name="Group 4133"><path id="Path_5182" data-name="Path 5182" class="cls-1" d="M31.09,45.25a1.15,1.15,0,1,1-.92,1.35h0a1.15,1.15,0,0,1,.91-1.35Z"></path></g><g id="Group_4134" data-name="Group 4134"><path id="Path_5183" data-name="Path 5183" class="cls-1" d="M33.81,52.19a1.14,1.14,0,0,1,1.61.12h0A1.17,1.17,0,0,1,35.3,54a1.14,1.14,0,0,1-1.61-.12h0A1.16,1.16,0,0,1,33.81,52.19Z"></path></g><g id="Group_4135" data-name="Group 4135"><path id="Path_5184" data-name="Path 5184" class="cls-1" d="M39.61,56.85a1.15,1.15,0,1,1,.7,1.47,1.14,1.14,0,0,1-.7-1.46Z"></path></g><g id="Group_4136" data-name="Group 4136"><path id="Path_5185" data-name="Path 5185" class="cls-1" d="M47,58a1.15,1.15,0,1,1,2.26-.41,1.13,1.13,0,0,1-.92,1.33A1.15,1.15,0,0,1,47,58Z"></path></g><g id="Group_4137" data-name="Group 4137"><path id="Path_5186" data-name="Path 5186" class="cls-1" d="M53.86,55.22A1.17,1.17,0,0,1,54,53.59a1.15,1.15,0,0,1,1.62.12h0a1.15,1.15,0,0,1-.12,1.63,1.13,1.13,0,0,1-1.61-.11Z"></path></g><g id="Group_4138" data-name="Group 4138"><path id="Path_5187" data-name="Path 5187" class="cls-1" d="M58.48,49.38A1.16,1.16,0,1,1,60,48.66h0A1.17,1.17,0,0,1,58.48,49.38Z"></path></g><g id="Group_4139" data-name="Group 4139"><path id="Path_5188" data-name="Path 5188" class="cls-1" d="M59.59,42a1.16,1.16,0,1,1,.91-1.36h0A1.15,1.15,0,0,1,59.59,42Z"></path></g><g id="Group_4140" data-name="Group 4140"><path id="Path_5189" data-name="Path 5189" class="cls-1" d="M56.87,35.05a1.15,1.15,0,0,1-1.62-.12h0a1.16,1.16,0,0,1,.12-1.63,1.15,1.15,0,0,1,1.62.11h0A1.16,1.16,0,0,1,56.87,35.05Z"></path></g><g id="Group_4141" data-name="Group 4141"><path id="Path_5190" data-name="Path 5190" class="cls-1" d="M51.06,30.4a1.15,1.15,0,1,1-.7-1.48,1.14,1.14,0,0,1,.7,1.46Z"></path></g></g></g><g id="Group_4150" data-name="Group 4150"><g id="Group_4145" data-name="Group 4145"><g id="Group_4144" data-name="Group 4144"><path id="Path_5191" data-name="Path 5191" d="M71.8,18.72a.32.32,0,0,1-.32-.32.31.31,0,0,1,0-.13l.71-1.48a.32.32,0,0,1,.43-.14.32.32,0,0,1,.14.42l-.71,1.47A.31.31,0,0,1,71.8,18.72Z"></path><path id="Path_5192" data-name="Path 5192" d="M70.14,22.17a.32.32,0,0,1-.32-.32.35.35,0,0,1,0-.14l.71-1.47a.32.32,0,0,1,.58.27L70.42,22A.31.31,0,0,1,70.14,22.17Z"></path><path id="Path_5193" data-name="Path 5193" d="M70.34,19.23a.35.35,0,0,1-.14,0l-1.47-.71a.32.32,0,0,1,.26-.58h0l1.48.71a.32.32,0,0,1-.14.6Z"></path><path id="Path_5194" data-name="Path 5194" d="M73.78,20.89a.31.31,0,0,1-.13,0l-1.48-.72a.31.31,0,1,1,.26-.57h0l1.48.71a.32.32,0,0,1,.14.43.3.3,0,0,1-.28.17Z"></path></g><path id="Path_5195" data-name="Path 5195" d="M65.53,27.55a1.69,1.69,0,1,1,.56-.1A1.54,1.54,0,0,1,65.53,27.55Zm0-2.74a1,1,0,1,0,.46.1A1.06,1.06,0,0,0,65.53,24.81Z"></path></g><g id="Group_4147" data-name="Group 4147"><g id="Group_4146" data-name="Group 4146"><path id="Path_5196" data-name="Path 5196" d="M184,41.37a.33.33,0,0,1-.26-.13,69.66,69.66,0,0,0-31.08-23.77.33.33,0,0,1-.18-.41.31.31,0,0,1,.41-.18h0a70.33,70.33,0,0,1,31.36,24,.32.32,0,0,1-.25.5Z"></path><path id="Path_5197" data-name="Path 5197" d="M178.12,39.12a.32.32,0,0,1-.24-.11,69.78,69.78,0,0,0-21.46-16.8.31.31,0,0,1,.28-.56h0a70.36,70.36,0,0,1,21.66,16.94.32.32,0,0,1,0,.45A.3.3,0,0,1,178.12,39.12Z"></path></g><path id="Path_5198" data-name="Path 5198" d="M147.73,17.76a1.69,1.69,0,1,1,.56-.1A1.78,1.78,0,0,1,147.73,17.76Zm0-2.75a1.06,1.06,0,1,0,.46.1,1.14,1.14,0,0,0-.45-.1Z"></path></g><g id="Group_4148" data-name="Group 4148"><path id="Path_5199" data-name="Path 5199" d="M188.47,113.44a.32.32,0,0,1-.28-.46l.71-1.48a.32.32,0,0,1,.43-.13.31.31,0,0,1,.14.41l-.71,1.48A.31.31,0,0,1,188.47,113.44Z"></path><path id="Path_5200" data-name="Path 5200" d="M186.82,116.88a.32.32,0,0,1-.32-.32.25.25,0,0,1,0-.14l.71-1.47a.32.32,0,0,1,.42-.16.31.31,0,0,1,.15.42h0l-.71,1.48A.33.33,0,0,1,186.82,116.88Z"></path><path id="Path_5201" data-name="Path 5201" d="M187,114a.33.33,0,0,1-.13,0l-1.48-.71a.32.32,0,1,1,.26-.58h0l1.48.71a.32.32,0,0,1-.14.6Z"></path><path id="Path_5202" data-name="Path 5202" d="M190.46,115.6a.31.31,0,0,1-.13,0l-1.48-.71a.31.31,0,0,1-.13-.43.31.31,0,0,1,.41-.14l1.47.71a.32.32,0,0,1-.14.6Z"></path></g><g id="Group_4149" data-name="Group 4149"><path id="Path_5203" data-name="Path 5203" d="M22,126a.32.32,0,0,1-.31-.26c-2.46-11.78-1.35-22.63,3.72-36.3a.32.32,0,1,1,.6.2v0c-5,13.54-6.12,24.29-3.7,36a.3.3,0,0,1-.24.37h0Z"></path><path id="Path_5204" data-name="Path 5204" d="M23.3,114a.31.31,0,0,1-.31-.31,64.94,64.94,0,0,1,2.14-16.65c.09-.4.18-.78.26-1.16a.32.32,0,0,1,.38-.24.31.31,0,0,1,.24.38h0c-.08.37-.17.76-.26,1.15a64.67,64.67,0,0,0-2.13,16.5.32.32,0,0,1-.31.32h0Z"></path></g></g><g id="Group_4167" data-name="Group 4167"><g id="Group_4151" data-name="Group 4151"><path id="Path_5205" data-name="Path 5205" class="cls-4" d="M45,141.73s4.15,1.38,5.85,1.2c2.4-.25,5.06-7.65,5.25-8.16a22.4,22.4,0,0,1,1.44-4.15,13.78,13.78,0,0,0,1.24-2.34.55.55,0,0,1,.64-.4.65.65,0,0,1,.37.85s0,0,0,.05l-.65,1.69c-.06.15-.15.3,0,.2.31-.23.7-.44,1-.29.48.27.74,2.11,0,3.41s-1.63,1-1.89,1.61-2.41,8.77-3.3,10.18c-1.27,2-10.16,2.24-11.49,2.2S45,141.73,45,141.73Z"></path><path id="Path_5206" data-name="Path 5206" d="M43.4,148.1h-.06a.6.6,0,0,1-.52-.3c-.6-1,1.3-5,1.9-6.21l.12-.25.26.09s4.11,1.35,5.73,1.19,3.68-4.38,5-7.93v0a7.33,7.33,0,0,0,.22-.73,15,15,0,0,1,1.27-3.49,13.81,13.81,0,0,0,1.21-2.28.85.85,0,0,1,1-.58,1,1,0,0,1,.54,1.32c-.15.37-.29.74-.42,1.09l0,.06a.78.78,0,0,1,.6.06,1.3,1.3,0,0,1,.51.82,4.21,4.21,0,0,1-.43,3,2.82,2.82,0,0,1-1.43,1.25c-.26.12-.38.18-.44.32s-.32,1-.61,2c-1,3.61-2.11,7.22-2.71,8.18C53.69,148,44.24,148.1,43.4,148.1Zm1.77-6c-1.24,2.56-2.08,5-1.8,5.37,2,.05,10.12-.34,11.21-2.07.6-1,1.88-5.38,2.64-8,.36-1.26.55-1.93.63-2.11a1.26,1.26,0,0,1,.77-.66,2.25,2.25,0,0,0,1.15-1,3.65,3.65,0,0,0,.36-2.53.9.9,0,0,0-.21-.44s-.23,0-.62.27a.34.34,0,0,1-.45,0,.39.39,0,0,1-.05-.5l0-.09c.07-.19.15-.39.23-.59.13-.36.28-.73.43-1.1a.44.44,0,0,0,0-.32.37.37,0,0,0-.17-.16c-.08,0-.19.06-.25.21a13.43,13.43,0,0,1-1.27,2.4,15.66,15.66,0,0,0-1.18,3.3c-.1.37-.18.64-.23.78v0c-.88,2.43-3.18,8.1-5.5,8.34-1.53.15-4.78-.83-5.73-1.14Z"></path></g><g id="Group_4159" data-name="Group 4159"><g id="Group_4155" data-name="Group 4155"><g id="Group_4152" data-name="Group 4152"><path id="Path_5207" data-name="Path 5207" class="cls-4" d="M40.26,181.05s-2.94,1-4.66.57c0,0-2.14,1.86-2.11,2.85l7.48-.15Z"></path><path id="Path_5208" data-name="Path 5208" d="M33.18,184.79v-.31c0-1.08,1.84-2.77,2.22-3.1l.13-.11.16,0c1.61.42,4.45-.56,4.48-.57l.34-.11.86,4ZM35.69,182a8,8,0,0,0-1.81,2.17l6.7-.13L40,181.46a10.34,10.34,0,0,1-4.34.51Z"></path></g><g id="Group_4154" data-name="Group 4154"><g id="Group_4153" data-name="Group 4153"><path id="Path_5209" data-name="Path 5209" class="cls-4" d="M37.06,181.29s-1.85-2.21-2.67-2.25-6.17,5-7.92,6.71a.56.56,0,0,0,0,.79.58.58,0,0,0,.25.15c1,.26,3.38.25,8.65-1.57a.78.78,0,0,0,.52-.63l.23-1.62L35,182.73Z"></path><path id="Path_5210" data-name="Path 5210" d="M27.87,187.12a4.76,4.76,0,0,1-1.24-.13.82.82,0,0,1-.61-.61.86.86,0,0,1,.23-.86c.07-.07,7.09-6.8,8.15-6.8h0c.91,0,2.57,2,2.89,2.36a.33.33,0,0,1,0,.45h0l-1.39,1,.29,0a.32.32,0,0,1,.28.36h0l-.23,1.62a1.07,1.07,0,0,1-.73.88A24.41,24.41,0,0,1,27.87,187.12Zm6.52-7.76c-.71.18-5.37,4.37-7.7,6.62a.26.26,0,0,0-.06.24.22.22,0,0,0,.16.16c.85.21,3.08.3,8.47-1.56a.49.49,0,0,0,.31-.38l.18-1.3L35,183a.32.32,0,0,1-.28-.35.3.3,0,0,1,.14-.22l1.77-1.24A6.6,6.6,0,0,0,34.39,179.36Z"></path></g><path id="Path_5211" data-name="Path 5211" d="M31.65,186.56a.32.32,0,0,1-.3-.23l-.47-1.49a.32.32,0,0,1,.25-.37.32.32,0,0,1,.35.18l.47,1.49a.32.32,0,0,1-.21.4l-.09,0Z"></path><path id="Path_5212" data-name="Path 5212" d="M32.57,186.16a.33.33,0,0,1-.3-.23l-.47-1.49a.32.32,0,0,1,.26-.37.31.31,0,0,1,.34.18l.47,1.49a.31.31,0,0,1-.2.4h0Z"></path><path id="Path_5213" data-name="Path 5213" d="M27.62,186.18a.31.31,0,0,1-.32-.31.3.3,0,0,1,.11-.24l7-6a.32.32,0,1,1,.41.49l-7,6A.29.29,0,0,1,27.62,186.18Z"></path></g></g><g id="Group_4157" data-name="Group 4157"><g id="Group_4156" data-name="Group 4156"><path id="Path_5214" data-name="Path 5214" class="cls-4" d="M64.69,185.61c0-.7,0-1.82,0-3.24l2.09.3,1.73-1.59s5,1.82,7.36,4.11a.75.75,0,0,1,0,1.06.78.78,0,0,1-.42.22,43.35,43.35,0,0,1-10,.1A1,1,0,0,1,64.69,185.61Z"></path><path id="Path_5215" data-name="Path 5215" d="M70.09,187.12a41.69,41.69,0,0,1-4.6-.24,1.27,1.27,0,0,1-1.11-1.28c0-.7,0-1.81,0-3.24a.3.3,0,0,1,.11-.23.29.29,0,0,1,.25-.07l1.94.27,1.62-1.48a.31.31,0,0,1,.32-.07c.2.08,5,1.87,7.47,4.18a1.05,1.05,0,0,1,.28,1.1,1,1,0,0,1-.84.72A40,40,0,0,1,70.09,187.12Zm-5-4.39c0,1.26,0,2.24,0,2.88a.63.63,0,0,0,.55.64,43.78,43.78,0,0,0,9.91-.1.41.41,0,0,0,.34-.28.42.42,0,0,0-.12-.45c-2.07-2-6.17-3.63-7.07-4L67,182.9a.35.35,0,0,1-.26.08Zm-.35,2.88Z"></path></g><path id="Path_5216" data-name="Path 5216" d="M70.57,186.08c-2.23,0-3.92-.15-3.95-.16a.31.31,0,0,1-.27-.35.33.33,0,0,1,.33-.28,45.12,45.12,0,0,0,8.38-.1.33.33,0,0,1,.36.27.32.32,0,0,1-.27.36h0A38.78,38.78,0,0,1,70.57,186.08Z"></path><path id="Path_5217" data-name="Path 5217" d="M71.55,184.78a.32.32,0,0,1-.32-.32s0,0,0-.06l.4-1.89a.31.31,0,0,1,.38-.24.3.3,0,0,1,.24.37l-.39,1.89A.32.32,0,0,1,71.55,184.78Z"></path><path id="Path_5218" data-name="Path 5218" d="M70.63,184.38h-.07a.3.3,0,0,1-.24-.37l.4-1.89a.3.3,0,0,1,.37-.24.32.32,0,0,1,.25.37l-.4,1.89A.31.31,0,0,1,70.63,184.38Z"></path></g><g id="Group_4158" data-name="Group 4158"><path id="Path_5219" data-name="Path 5219" class="cls-6" d="M49.84,163c.1-.09,9.5-6.89,12.07-6.16,4.39,1.25,3.54,14.45,3.44,17.94s-16-6.8-16.53-7.7A3.15,3.15,0,0,1,49.84,163Z"></path><path id="Path_5220" data-name="Path 5220" class="cls-6" d="M65.21,173.93l0,0c2.75,2.49,3.89,5,3.69,8.14s-4.56,5.33-18.72,3.71c-3-.43-8.94-.77-11.52-.86a1,1,0,0,1-1-1l0-2.46a1,1,0,0,1,.48-.84A21,21,0,0,1,50.5,177.6c.22,0,.18-.23,0-.28-3.64-.81-9.27-1.18-10.84-2.52-3.05-2.58-2.48-7.17-1.82-10,1.92-8.17,13.94.35,14,.38h0s1.63.95,3.74,2.24Z"></path><path id="Path_5221" data-name="Path 5221" class="cls-4" d="M58.62,179.45a.32.32,0,0,1-.16,0s-2.66-1.57-8.92-1.72a.32.32,0,0,1-.32-.32.33.33,0,0,1,.33-.31h0c6.47.15,9.13,1.74,9.24,1.81a.3.3,0,0,1,.1.43A.29.29,0,0,1,58.62,179.45Z"></path><path id="Path_5222" data-name="Path 5222" class="cls-4" d="M64.43,173.6a.31.31,0,0,1-.2-.07c-.07-.05-7.66-5.89-12.92-7.2a.32.32,0,0,1-.24-.38.3.3,0,0,1,.37-.24h0c5.39,1.35,13.08,7.26,13.16,7.32a.32.32,0,0,1,.06.45.3.3,0,0,1-.25.12Z"></path></g></g><g id="Group_4162" data-name="Group 4162"><path id="Path_5223" data-name="Path 5223" d="M52.29,132.48s1.6-.47.47-3.2-4.18-1.57-5.37-1.6-3.7-1.72-4.57-2.11-3.8-2.23-7.35,1.57c0,0-.53,1-3.7,1.13-2.76.15-7.36,2.37-5.24,5.79a4.5,4.5,0,0,0,2.62,2c.19.06.41.1.63.15a2,2,0,0,1,1.48,1.24c.83,2.14,3.38,6.15,10,.9A1.94,1.94,0,0,1,43,138c.73.21,1.65,1.27,4.91.34,2.1-.6,2.44-3,2.86-4.17A2.66,2.66,0,0,1,52.29,132.48Z"></path><g id="Group_4161" data-name="Group 4161"><g id="Group_4160" data-name="Group 4160"><path id="Path_5224" data-name="Path 5224" class="cls-4" d="M51.83,132.63l.24.72a3.84,3.84,0,0,0,.87,1.58.18.18,0,0,1,0,.24l-.45.53a.14.14,0,0,0,0,.13c0,.29.17,1.36.17,1.57a.83.83,0,0,1-.25.53,4,4,0,0,1-1.29.18s-.28.07-.62,1.64c-.23,1.11,1.42,2.27,1.42,2.27s-3.72,1.5-6.85.2a.28.28,0,0,1-.12-.39.39.39,0,0,1,.08-.1,8,8,0,0,0,2.67-3.3.41.41,0,0,1,.2-.21c.38-.16,1.42-.45,1.23-2.2a.18.18,0,0,0-.05-.12c-.22-.3-1.22-1.81.5-1.6a1.35,1.35,0,0,0,1.58-1.07h0a.57.57,0,0,1,.23-.3Z"></path><path id="Path_5225" data-name="Path 5225" d="M47.94,143.07a8,8,0,0,1-3-.56.56.56,0,0,1-.34-.46.6.6,0,0,1,.24-.57,7.81,7.81,0,0,0,2.56-3.16.69.69,0,0,1,.37-.4l.08,0c.41-.17,1.1-.45,1-1.83-.3-.42-.74-1.18-.44-1.7.2-.33.61-.46,1.24-.38a1,1,0,0,0,1.23-.79.43.43,0,0,0,0-.05.81.81,0,0,1,.36-.49l.47-.29a.32.32,0,0,1,.44.1l0,.07.24.71a.83.83,0,0,1,0,.12,3.34,3.34,0,0,0,.76,1.36.49.49,0,0,1,0,.65l-.4.48c.07.52.18,1.36.17,1.56a1.12,1.12,0,0,1-.38.78,3.22,3.22,0,0,1-1.34.24,4.57,4.57,0,0,0-.44,1.4c-.16.73.87,1.64,1.29,1.93a.32.32,0,0,1,.08.44.44.44,0,0,1-.15.12A12,12,0,0,1,47.94,143.07ZM45.24,142a9.58,9.58,0,0,0,6,0c-.52-.47-1.27-1.33-1.08-2.21.34-1.59.65-1.84.85-1.89h.07a4.11,4.11,0,0,0,1.11-.12.58.58,0,0,0,.12-.28c0-.12-.07-.74-.17-1.52a.49.49,0,0,1,.11-.38l.36-.43a4.16,4.16,0,0,1-.82-1.52.29.29,0,0,1,0-.09,2.58,2.58,0,0,1-.12-.34l-.13.08a.2.2,0,0,0-.09.11,1.67,1.67,0,0,1-1.92,1.31c-.43-.05-.59,0-.62.07s.07.54.41,1a.61.61,0,0,1,.11.28,2.08,2.08,0,0,1-1.35,2.5l-.07,0,0,0A8.2,8.2,0,0,1,45.24,142Z"></path></g><path id="Path_5226" data-name="Path 5226" d="M49.46,136.35a.94.94,0,0,1-.8-.49.32.32,0,0,1,.08-.44.31.31,0,0,1,.44.09h0a.36.36,0,0,0,.25.2.32.32,0,0,0,.21-.06.3.3,0,0,1,.43-.12.31.31,0,0,1,.15.35.81.81,0,0,1-.64.46Z"></path><path id="Path_5227" data-name="Path 5227" d="M52.87,135.13a.31.31,0,0,1-.31-.31.31.31,0,0,1,.27-.32.35.35,0,0,0,.31-.18,1.58,1.58,0,0,0,0-1l-3.42,1a.33.33,0,0,1-.4-.21.32.32,0,0,1,.21-.4h0l3.72-1.13a.33.33,0,0,1,.38.19,2.52,2.52,0,0,1,.07,1.87,1,1,0,0,1-.77.5Z"></path><path id="Path_5228" data-name="Path 5228" class="cls-7" d="M50,136.61a.28.28,0,0,0-.34-.22h0a.3.3,0,0,0-.22.34.29.29,0,0,0,.34.22h0A.29.29,0,0,0,50,136.61Z"></path></g></g><g id="Group_4164" data-name="Group 4164"><path id="Path_5229" data-name="Path 5229" class="cls-1" d="M80.33,120l-22.58,3.12A2.17,2.17,0,0,0,56,125.37l.49,10.44a1.72,1.72,0,0,0,1.73,1.72h.18l22.38-2.75a2.2,2.2,0,0,0,1.86-2.23l-.31-10.76A1.75,1.75,0,0,0,80.61,120Z"></path><path id="Path_5230" data-name="Path 5230" class="cls-3" d="M59.64,137.68a.32.32,0,0,1,0-.63l12.26-1.5a.32.32,0,0,1,.08.63l-12.26,1.5Z"></path><path id="Path_5231" data-name="Path 5231" class="cls-3" d="M58.09,137.86a1.94,1.94,0,0,1-1.27-.47,2.12,2.12,0,0,1-.75-1.56l-.2-4.36a.32.32,0,1,1,.64,0l.2,4.35a1.52,1.52,0,0,0,.52,1.11,1.35,1.35,0,0,0,1,.3l1.33-.16a.32.32,0,0,1,.35.28.31.31,0,0,1-.27.34l-1.34.17Z"></path><path id="Path_5232" data-name="Path 5232" class="cls-3" d="M82.4,128a.33.33,0,0,1-.32-.31l-.17-5.9a1.53,1.53,0,0,0-.52-1.15,1.46,1.46,0,0,0-1.12-.31L57.7,123.48a1.82,1.82,0,0,0-1.48,1.89.32.32,0,0,1-.63,0,2.46,2.46,0,0,1,2-2.55l22.58-3.12a2,2,0,0,1,1.61.45,2.18,2.18,0,0,1,.74,1.6l.17,5.9a.31.31,0,0,1-.3.33h0Z"></path><g id="Group_4163" data-name="Group 4163"><path id="Path_5233" data-name="Path 5233" class="cls-4" d="M80.41,124.18a1,1,0,0,1-.81,1l-16.17,2.15a.75.75,0,0,1-.84-.65v-.09a.93.93,0,0,1,.77-1l16.19-2.18a.75.75,0,0,1,.85.64A.49.49,0,0,1,80.41,124.18Z"></path><path id="Path_5234" data-name="Path 5234" class="cls-4" d="M80.56,129.17a1,1,0,0,1-.8,1L63.64,132.2a.75.75,0,0,1-.84-.65v-.09a.93.93,0,0,1,.77-1l16.14-2.09a.75.75,0,0,1,.84.66A.34.34,0,0,1,80.56,129.17Z"></path><path id="Path_5235" data-name="Path 5235" class="cls-4" d="M61.19,126.81a1.8,1.8,0,0,1-1.48,1.85h-.1A1.44,1.44,0,0,1,58,127.41a1.09,1.09,0,0,1,0-.18v-.1a1.79,1.79,0,0,1,1.47-1.86h.1a1.44,1.44,0,0,1,1.61,1.25.61.61,0,0,1,0,.19Z"></path></g></g><g id="Group_4166" data-name="Group 4166"><g id="Group_4165" data-name="Group 4165"><path id="Path_5236" data-name="Path 5236" class="cls-4" d="M61.75,145.31s4.15,1.38,5.86,1.2c2.4-.24,5.06-7.65,5.24-8.16a23,23,0,0,1,1.45-4.15,13.78,13.78,0,0,0,1.24-2.34c.14-.34.4-.47.64-.4a.68.68,0,0,1,.37.86s0,0,0,0c-.24.59-.46,1.19-.65,1.69-.07.16-.16.3,0,.21.32-.23,2.78-3.31,3-3.16.48.27-.25,5.24-1,6.53s-2.72.73-3,1.36-2.42,8.77-3.3,10.17c-1.28,2-10.16,2.25-11.5,2.2S61.75,145.31,61.75,145.31Z"></path><path id="Path_5237" data-name="Path 5237" d="M60.15,151.69h-.06a.6.6,0,0,1-.53-.3c-.6-1,1.3-5,1.9-6.21l.13-.25.26.09s4.1,1.35,5.72,1.18,3.68-4.37,5-7.92v0c0-.12.12-.4.21-.73A15.52,15.52,0,0,1,74,134a13.1,13.1,0,0,0,1.21-2.28.85.85,0,0,1,1-.58,1,1,0,0,1,.54.5,1,1,0,0,1,0,.82c0,.13-.1.27-.16.41,1.84-2.11,2.07-2.26,2.39-2.07a.57.57,0,0,1,.25.37,15.69,15.69,0,0,1-1.16,6.6,2.76,2.76,0,0,1-2.22,1.13c-.26,0-.7.1-.74.19s-.32,1-.61,2c-1,3.61-2.11,7.21-2.71,8.17C70.43,151.61,61,151.69,60.15,151.69Zm1.76-6c-1.24,2.55-2.08,5-1.8,5.36,2,.05,10.13-.33,11.22-2.06.6-1,1.87-5.38,2.63-8,.37-1.25.56-1.92.64-2.11.17-.42.69-.5,1.23-.57a2.21,2.21,0,0,0,1.77-.83,16.44,16.44,0,0,0,1.13-5.89c-.42.4-1.22,1.31-1.69,1.85a10.34,10.34,0,0,1-1,1.09.35.35,0,0,1-.45,0,.39.39,0,0,1,0-.5l0-.09c.07-.19.15-.39.23-.59.13-.36.28-.73.42-1.1a.36.36,0,0,0,0-.32.31.31,0,0,0-.16-.16c-.09,0-.19.06-.25.21a13.43,13.43,0,0,1-1.27,2.4,15.66,15.66,0,0,0-1.18,3.3c-.1.37-.18.64-.23.78v0c-.88,2.43-3.18,8.1-5.5,8.34-1.52.15-4.77-.84-5.73-1.14Z"></path></g><path id="Path_5238" data-name="Path 5238" class="cls-5" d="M39.19,161.21c.83-1.62.85-6.41.83-8.08-.38-9.85,3.25-11.67,4.47-12a19.71,19.71,0,0,1,6.18-.1c4.14.54,12.69,4.06,12.69,4.06s-3.17,7-3.24,7c-3.2.68-3.36.81-3.56,1.52-.29,1-.29,1.67-1,2.35-1.23,1.17-2.09.94-2.51,1.7a21.35,21.35,0,0,0-2.48,6.63c-.91,3.89-7.8,2.45-11.27,1.09-.38-.14-1.31-.41-1.43-.7s-.06-.56.38-1.65C38.5,162.41,38.84,161.89,39.19,161.21Z"></path></g></g></svg>